Coordinates
version=1
nRows=43
nColumns=12
inDegrees=yes

Units are S.I. units (second, meters, Newtons, ...)
Angles are in degrees

endheader
time	SC_y	SC_z	SC_x	AC_y	AC_z	AC_x	GH_y	GH_z	GH_yy	EL_x	PS_y
       0.0              -55.78          5.903          50.38          56.85         -4.383         -7.206          91.09           88.8         -155.1          121.7          7.917
   0.03126              -55.78          5.902          50.38          56.85         -4.383         -7.204          91.08           88.8         -155.1          121.7          7.921
   0.06252              -55.77          5.901          50.38          56.85         -4.383         -7.201          91.06          88.79         -155.0          121.7          7.925
   0.09378              -55.77          5.901          50.38          56.85         -4.383         -7.198          91.03          88.79         -155.0          121.7           7.93
     0.125              -55.77            5.9          50.38          56.85         -4.383         -7.195          91.01          88.79         -155.0          121.7          7.935
    0.1563              -55.76          5.899          50.39          56.85         -4.384         -7.192          90.99          88.78         -155.0          121.7           7.94
    0.1876              -55.76          5.897          50.39          56.85         -4.384         -7.189          90.96          88.78         -154.9          121.7          7.946
    0.2188              -55.75          5.896          50.39          56.85         -4.384         -7.185          90.94          88.78         -154.9          121.6          7.952
    0.2501              -55.75          5.895          50.39          56.85         -4.384         -7.182          90.91          88.77         -154.9          121.6          7.958
    0.2813              -55.74          5.894          50.39          56.85         -4.384         -7.177          90.88          88.77         -154.8          121.6          7.965
    0.3126              -55.73          5.892          50.39          56.85         -4.384         -7.173          90.84          88.76         -154.8          121.6          7.973
    0.3439              -55.73          5.891          50.39          56.85         -4.384         -7.168          90.81          88.76         -154.7          121.6          7.981
    0.3751              -55.72          5.889           50.4          56.85         -4.385         -7.163          90.77          88.75         -154.7          121.5          7.989
    0.4064              -55.71          5.887           50.4          56.85         -4.385         -7.158          90.73          88.75         -154.6          121.5          7.999
    0.4376              -55.71          5.885           50.4          56.85         -4.385         -7.152          90.68          88.74         -154.6          121.5          8.009
    0.4689               -55.7          5.883           50.4          56.85         -4.385         -7.145          90.63          88.74         -154.5          121.5           8.02
    0.5001              -55.69          5.881           50.4          56.85         -4.386         -7.138          90.58          88.73         -154.5          121.4          8.032
    0.5314              -55.68          5.879          50.41          56.85         -4.386         -7.131          90.52          88.72         -154.4          121.4          8.045
    0.5627              -55.66          5.876          50.41          56.85         -4.386         -7.122          90.46          88.71         -154.3          121.3          8.059
    0.5939              -55.65          5.873          50.41          56.85         -4.387         -7.113          90.39           88.7         -154.2          121.3          8.075
    0.6252              -55.64           5.87          50.42          56.85         -4.387         -7.103          90.31          88.69         -154.1          121.3          8.092
    0.6564              -55.62          5.866          50.42          56.85         -4.387         -7.092          90.23          88.68         -154.0          121.2          8.111
    0.6877              -55.61          5.862          50.43          56.85         -4.388          -7.08          90.14          88.67         -153.9          121.1          8.131
     0.719              -55.59          5.858          50.43          56.85         -4.388         -7.067          90.03          88.66         -153.8          121.1          8.154
    0.7502              -55.57          5.853          50.44          56.85         -4.389         -7.051          89.92          88.64         -153.7          121.0           8.18
    0.7815              -55.54          5.848          50.44          56.85          -4.39         -7.035          89.79          88.62         -153.5          120.9          8.208
    0.8127              -55.52          5.841          50.45          56.85          -4.39         -7.016          89.65           88.6         -153.4          120.8           8.24
     0.844              -55.49          5.835          50.46          56.85         -4.391         -6.995          89.49          88.58         -153.2          120.7          8.276
    0.8753              -55.46          5.827          50.46          56.85         -4.392         -6.971          89.31          88.56         -152.9          120.6          8.317
    0.9065              -55.42          5.818          50.47          56.84         -4.393         -6.944           89.1          88.53         -152.7          120.5          8.363
    0.9378              -55.38          5.808          50.49          56.84         -4.394         -6.913          88.87           88.5         -152.4          120.4          8.416
     0.969              -55.33          5.797           50.5          56.84         -4.396         -6.878           88.6          88.46         -152.1          120.2          8.476
       1.0              -55.27          5.783          50.51          56.84         -4.397         -6.837          88.29          88.42         -151.7          120.0          8.546
     1.032               -55.2          5.768          50.53          56.84         -4.399         -6.789          87.92          88.37         -151.3          119.8          8.627
     1.063              -55.13           5.75          50.55          56.84         -4.401         -6.733           87.5          88.31         -150.8          119.5          8.722
     1.094              -55.04          5.729          50.57          56.83         -4.404         -6.668           87.0          88.24         -150.2          119.2          8.833
     1.125              -54.93          5.703           50.6          56.83         -4.407          -6.59          86.41          88.16         -149.5          118.8          8.966
     1.157               -54.8          5.673          50.64          56.83          -4.41         -6.496           85.7          88.07         -148.6          118.4          9.125
     1.188              -54.64          5.636          50.68          56.82         -4.415         -6.383          84.84          87.95         -147.6          117.8          9.318
     1.219              -54.45          5.591          50.73          56.82          -4.42         -6.245          83.79          87.81         -146.3          117.2          9.553
      1.25              -54.22          5.536          50.79          56.81         -4.427         -6.074          82.49          87.63         -144.8          116.4          9.844
     1.282              -53.92          5.467          50.87           56.8         -4.435         -5.862          80.88          87.41         -142.8          115.4          10.21
     1.313              -53.55           5.38          50.96          56.79         -4.445         -5.594          78.84          87.14         -140.4          114.1          10.66
